<svg xmlns="http://www.w3.org/2000/svg" width="420" height="420" viewBox="0 0 420 420"><rect width="420" height="420" fill="#e9dfc6"/><path d="M226.9 68.4 Q208.3 105.1 179.0 149.8 Q149.7 194.6 95.1 183.0 Q40.4 171.4 8.0 128.0 Q-24.4 84.7 -30.8 29.4 Q-37.2 -25.8 13.1 -46.9 Q63.4 -68.0 108.1 -108.2 Q152.8 -148.3 189.6 -102.5 Q226.4 -56.6 235.9 -12.4 Q245.5 31.8 226.9 68.4 Z" fill="#efe6cf" opacity="0.35"/><path d="M261.8 506.2 Q250.8 560.7 200.0 586.0 Q149.2 611.4 96.9 597.8 Q44.5 584.3 1.5 547.6 Q-41.6 511.0 -48.7 449.2 Q-55.7 387.5 -0.1 362.8 Q55.5 338.2 100.0 328.1 Q144.6 317.9 201.8 327.0 Q259.0 336.0 265.9 393.9 Q272.8 451.8 261.8 506.2 Z" fill="#efe6cf" opacity="0.35"/><path d="M667.7 78.5 Q652.3 125.1 608.0 142.8 Q563.7 160.5 521.6 149.3 Q479.6 138.2 443.1 109.5 Q406.6 80.7 418.8 36.2 Q431.0 -8.3 452.7 -46.0 Q474.3 -83.8 519.4 -92.6 Q564.5 -101.5 605.4 -79.0 Q646.2 -56.5 664.7 -12.4 Q683.2 31.8 667.7 78.5 Z" fill="#efe6cf" opacity="0.35"/><path d="M664.7 502.8 Q662.6 553.8 615.6 581.3 Q568.7 608.9 521.3 588.4 Q474.0 567.9 435.6 536.0 Q397.3 504.1 403.9 454.2 Q410.4 404.2 442.9 371.1 Q475.3 338.0 520.6 324.4 Q565.9 310.9 618.4 326.8 Q671.0 342.7 668.9 397.2 Q666.8 451.8 664.7 502.8 Z" fill="#efe6cf" opacity="0.35"/><path d="M179.8 45.4 Q163.9 84.0 132.2 127.0 Q100.5 169.9 51.0 149.2 Q1.4 128.6 -21.5 88.8 Q-44.5 49.0 -52.6 3.8 Q-60.7 -41.5 -30.4 -79.6 Q-0.0 -117.6 51.2 -142.5 Q102.5 -167.3 132.3 -118.2 Q162.1 -69.1 178.9 -31.2 Q195.6 6.7 179.8 45.4 Z" fill="#efe6cf" opacity="0.35"/><path d="M210.2 472.3 Q180.4 517.8 137.3 536.0 Q94.3 554.2 47.0 552.8 Q-0.2 551.3 -19.2 509.1 Q-38.2 466.8 -62.9 417.8 Q-87.5 368.8 -36.1 348.9 Q15.4 329.0 53.5 321.3 Q91.7 313.6 142.0 319.6 Q192.3 325.6 216.2 376.2 Q240.0 426.7 210.2 472.3 Z" fill="#efe6cf" opacity="0.35"/><path d="M623.8 53.8 Q604.1 101.0 560.4 124.8 Q516.8 148.7 472.6 132.6 Q428.4 116.4 405.6 81.4 Q382.8 46.4 365.5 0.4 Q348.1 -45.6 381.2 -86.5 Q414.3 -127.4 469.0 -151.0 Q523.7 -174.6 572.5 -138.3 Q621.3 -102.0 632.4 -47.6 Q643.4 6.7 623.8 53.8 Z" fill="#efe6cf" opacity="0.35"/><path d="M618.0 477.4 Q612.5 528.0 567.1 562.1 Q521.6 596.1 473.1 569.6 Q424.6 543.1 371.6 516.4 Q318.6 489.7 345.1 436.4 Q371.6 383.0 387.1 327.6 Q402.6 272.2 457.9 288.7 Q513.2 305.2 571.2 308.3 Q629.1 311.5 626.3 369.1 Q623.5 426.7 618.0 477.4 Z" fill="#efe6cf" opacity="0.35"/><path d="M178.4 158.3 Q151.3 209.8 105.4 246.5 Q59.6 283.1 2.0 267.8 Q-55.6 252.6 -107.4 213.8 Q-159.1 175.1 -133.1 116.3 Q-107.0 57.5 -93.7 -12.1 Q-80.4 -81.8 -10.2 -76.5 Q59.9 -71.1 125.9 -50.7 Q192.0 -30.3 198.8 38.3 Q205.6 106.8 178.4 158.3 Z" fill="#e3d5b4" opacity="0.35"/><path d="M192.9 572.7 Q137.9 618.6 98.4 658.9 Q58.9 699.2 -1.0 690.5 Q-61.0 681.8 -87.6 630.3 Q-114.2 578.8 -141.2 517.0 Q-168.2 455.2 -109.0 423.3 Q-49.7 391.3 1.4 391.1 Q52.5 390.9 103.9 405.7 Q155.2 420.5 201.6 473.7 Q247.9 526.8 192.9 572.7 Z" fill="#e3d5b4" opacity="0.35"/><path d="M620.9 173.4 Q607.2 239.9 543.4 261.4 Q479.6 282.8 425.9 260.9 Q372.2 239.0 337.3 199.5 Q302.4 160.0 311.1 110.0 Q319.8 60.0 332.6 -6.0 Q345.4 -71.9 409.4 -52.9 Q473.3 -33.9 528.8 -20.5 Q584.2 -7.0 609.5 49.9 Q634.7 106.8 620.9 173.4 Z" fill="#e3d5b4" opacity="0.35"/><path d="M589.0 574.9 Q563.0 622.9 522.8 671.5 Q482.6 720.2 427.0 690.4 Q371.3 660.6 333.4 621.6 Q295.4 582.6 283.1 522.3 Q270.7 462.1 317.0 420.6 Q363.3 379.1 423.4 354.0 Q483.5 328.8 529.4 374.6 Q575.4 420.4 595.1 473.6 Q614.9 526.8 589.0 574.9 Z" fill="#e3d5b4" opacity="0.35"/><path d="M155.3 275.8 Q128.0 305.4 102.5 331.7 Q77.0 358.0 31.3 364.1 Q-14.4 370.3 -24.8 325.0 Q-35.2 279.8 -35.6 246.0 Q-36.0 212.1 -20.8 174.7 Q-5.5 137.2 38.0 123.2 Q81.5 109.2 113.5 140.7 Q145.5 172.1 164.1 209.1 Q182.6 246.1 155.3 275.8 Z" fill="#e3d5b4" opacity="0.35"/><path d="M581.0 274.9 Q545.8 303.6 519.9 321.9 Q493.9 340.2 462.2 333.7 Q430.6 327.1 410.7 302.3 Q390.9 277.6 379.9 242.1 Q368.8 206.6 399.2 185.0 Q429.5 163.3 464.3 143.1 Q499.0 122.9 536.8 143.7 Q574.6 164.5 595.4 205.3 Q616.2 246.1 581.0 274.9 Z" fill="#e3d5b4" opacity="0.35"/><path d="M4.2 243.5 Q-16.3 278.2 -48.4 296.3 Q-80.5 314.4 -122.2 317.7 Q-163.9 321.0 -175.2 280.8 Q-186.5 240.5 -186.2 208.8 Q-185.9 177.1 -168.7 147.5 Q-151.5 117.9 -115.9 109.7 Q-80.2 101.4 -43.0 115.9 Q-5.8 130.4 9.4 169.6 Q24.6 208.7 4.2 243.5 Z" fill="#e3d5b4" opacity="0.35"/><path d="M401.3 238.0 Q390.7 267.3 365.5 292.9 Q340.2 318.5 302.4 312.4 Q264.6 306.2 234.4 278.7 Q204.3 251.2 200.9 207.5 Q197.6 163.8 228.9 133.7 Q260.2 103.6 300.9 97.3 Q341.6 91.0 378.7 110.0 Q415.8 129.1 413.9 168.9 Q411.9 208.7 401.3 238.0 Z" fill="#e3d5b4" opacity="0.35"/><path d="M70.3 362.4 Q76.8 358.3 85.6 360.2 Q94.4 362.0 95.2 370.2 Q96.0 378.4 94.4 386.5 Q92.8 394.6 83.4 395.0 Q74.0 395.5 66.7 389.1 Q59.4 382.8 61.6 374.6 Q63.8 366.5 70.3 362.4 Z" fill="#c79a5a"/><path d="M89.4 388.6 Q87.0 385.1 92.0 377.8 Q97.1 370.6 103.3 365.9 Q109.5 361.2 110.7 368.1 Q111.8 375.1 105.8 381.7 Q99.7 388.4 95.8 390.2 Q91.9 392.1 89.4 388.6 Z" fill="#241c15"/><path d="M75.4 -28.3 Q77.8 -32.8 86.8 -37.2 Q95.8 -41.7 99.8 -37.6 Q103.8 -33.6 99.8 -29.3 Q95.8 -25.0 88.3 -21.0 Q80.8 -16.9 76.9 -20.3 Q73.0 -23.8 75.4 -28.3 Z" fill="#241c15"/><path d="M77.2 390.9 Q78.4 386.5 85.3 384.5 Q92.3 382.5 98.8 384.2 Q105.4 385.9 101.8 391.5 Q98.2 397.1 90.8 398.7 Q83.4 400.3 79.7 397.8 Q76.1 395.3 77.2 390.9 Z" fill="#241c15"/><path d="M66.6 362.7 Q67.0 366.7 65.6 370.3 Q64.2 374.0 61.4 375.4 Q58.6 376.9 57.8 373.8 Q57.1 370.8 58.5 367.1 Q60.0 363.5 63.2 361.1 Q66.3 358.7 66.6 362.7 Z" fill="#241c15"/><path d="M93.1 358.3 Q87.6 361.7 82.1 361.8 Q76.6 362.0 72.8 359.7 Q69.0 357.4 70.7 353.2 Q72.5 348.9 79.3 349.9 Q86.1 350.9 92.3 352.9 Q98.5 355.0 93.1 358.3 Z" fill="#241c15"/><path d="M290.5 302.8 Q291.0 298.7 293.4 295.5 Q295.8 292.2 299.0 293.1 Q302.1 294.0 303.3 297.1 Q304.5 300.2 301.2 302.3 Q297.9 304.5 293.9 305.6 Q290.0 306.8 290.5 302.8 Z" fill="#181310"/><path d="M187.3 129.3 Q190.3 129.5 191.9 133.5 Q193.5 137.5 191.8 140.2 Q190.1 142.9 187.2 141.9 Q184.2 140.9 181.4 137.1 Q178.7 133.3 181.5 131.2 Q184.2 129.1 187.3 129.3 Z" fill="#241c15"/><path d="M42.4 158.9 Q41.8 165.6 34.7 167.8 Q27.5 169.9 22.1 168.4 Q16.6 166.9 15.0 162.2 Q13.5 157.4 16.3 152.3 Q19.0 147.1 26.5 144.2 Q33.9 141.3 38.5 146.7 Q43.0 152.1 42.4 158.9 Z" fill="#c79a5a"/><path d="M16.7 150.6 Q18.1 153.2 16.7 157.5 Q15.3 161.9 12.5 163.2 Q9.8 164.6 8.1 162.0 Q6.5 159.4 8.8 156.1 Q11.0 152.7 13.2 150.4 Q15.3 148.0 16.7 150.6 Z" fill="#181310"/><path d="M437.0 150.0 Q438.4 153.1 436.5 156.6 Q434.6 160.2 432.1 162.8 Q429.6 165.3 428.0 162.3 Q426.5 159.3 428.3 155.0 Q430.1 150.8 432.9 148.8 Q435.7 146.9 437.0 150.0 Z" fill="#181310"/><path d="M31.3 147.5 Q29.0 148.9 24.5 149.1 Q20.0 149.4 19.3 146.8 Q18.7 144.2 19.7 141.6 Q20.8 139.0 26.5 139.8 Q32.1 140.6 32.9 143.4 Q33.6 146.1 31.3 147.5 Z" fill="#181310"/><path d="M41.6 155.8 Q37.5 154.0 33.5 150.3 Q29.4 146.6 30.5 143.4 Q31.6 140.1 35.0 139.6 Q38.4 139.2 43.0 144.3 Q47.6 149.4 46.7 153.5 Q45.7 157.7 41.6 155.8 Z" fill="#181310"/><path d="M36.0 172.4 Q33.6 169.9 35.4 165.3 Q37.3 160.8 39.7 159.4 Q42.1 157.9 44.8 159.5 Q47.6 161.0 45.6 165.8 Q43.7 170.5 41.0 172.7 Q38.4 174.9 36.0 172.4 Z" fill="#181310"/><path d="M20.6 170.7 Q22.9 166.8 29.6 166.4 Q36.4 166.0 39.3 167.3 Q42.2 168.5 40.2 171.0 Q38.1 173.4 31.8 176.7 Q25.4 180.0 21.9 177.3 Q18.3 174.6 20.6 170.7 Z" fill="#181310"/><path d="M10.5 158.6 Q14.1 159.6 19.6 162.8 Q25.1 166.0 24.8 170.1 Q24.5 174.2 20.3 174.4 Q16.2 174.6 11.2 169.4 Q6.2 164.3 6.6 160.9 Q7.0 157.6 10.5 158.6 Z" fill="#181310"/><path d="M431.7 158.1 Q434.7 156.9 439.0 160.9 Q443.4 164.9 442.1 167.8 Q440.8 170.7 437.9 170.4 Q435.0 170.1 431.0 167.7 Q427.0 165.3 427.9 162.3 Q428.8 159.3 431.7 158.1 Z" fill="#181310"/><path d="M155.5 356.7 Q150.5 356.7 145.0 355.8 Q139.5 354.9 138.3 348.6 Q137.2 342.4 141.9 338.8 Q146.6 335.2 151.5 337.1 Q156.4 339.0 158.7 342.8 Q160.9 346.6 160.7 351.6 Q160.5 356.6 155.5 356.7 Z" fill="#b8874a"/><path d="M141.3 341.8 Q143.4 345.3 144.2 349.5 Q145.0 353.8 143.0 356.7 Q141.1 359.5 138.8 356.9 Q136.5 354.3 136.6 350.3 Q136.7 346.3 138.0 342.3 Q139.2 338.4 141.3 341.8 Z" fill="#241c15"/><path d="M151.2 338.3 Q151.5 342.0 146.2 345.2 Q140.9 348.5 137.9 346.1 Q134.9 343.7 134.7 340.1 Q134.4 336.4 139.3 334.7 Q144.2 333.0 147.6 333.8 Q150.9 334.5 151.2 338.3 Z" fill="#241c15"/><path d="M163.3 341.2 Q160.7 341.5 158.0 340.1 Q155.4 338.6 154.5 335.9 Q153.6 333.2 156.5 333.1 Q159.4 333.1 162.5 334.3 Q165.7 335.5 165.8 338.2 Q165.9 340.9 163.3 341.2 Z" fill="#241c15"/><path d="M156.0 361.0 Q154.1 357.5 157.3 350.9 Q160.5 344.4 164.9 340.4 Q169.3 336.3 169.7 342.3 Q170.1 348.3 167.8 355.1 Q165.5 361.9 161.7 363.2 Q157.9 364.6 156.0 361.0 Z" fill="#241c15"/><path d="M212.8 283.6 Q220.8 280.7 222.0 289.0 Q223.1 297.2 223.9 305.5 Q224.6 313.8 216.2 313.1 Q207.7 312.5 201.5 310.1 Q195.3 307.6 192.7 300.0 Q190.0 292.4 197.4 289.4 Q204.9 286.4 212.8 283.6 Z" fill="#d2a968"/><path d="M217.4 279.1 Q216.1 283.5 210.1 285.6 Q204.0 287.7 196.9 286.5 Q189.8 285.3 194.4 279.8 Q198.9 274.2 204.6 272.9 Q210.3 271.5 214.5 273.1 Q218.7 274.7 217.4 279.1 Z" fill="#181310"/><path d="M219.1 317.8 Q217.1 313.5 219.9 304.9 Q222.8 296.2 229.4 292.6 Q236.0 289.0 237.8 296.3 Q239.6 303.6 234.9 311.3 Q230.3 319.1 225.7 320.6 Q221.2 322.1 219.1 317.8 Z" fill="#181310"/><path d="M191.7 304.3 Q195.9 301.1 203.3 307.4 Q210.7 313.6 209.2 318.4 Q207.6 323.2 203.2 324.3 Q198.7 325.3 191.4 321.3 Q184.0 317.3 185.7 312.4 Q187.5 307.6 191.7 304.3 Z" fill="#181310"/><path d="M194.5 285.7 Q197.0 289.4 196.7 293.9 Q196.4 298.4 194.0 302.8 Q191.5 307.1 188.3 303.5 Q185.1 299.8 185.9 294.4 Q186.7 289.1 189.4 285.5 Q192.1 282.0 194.5 285.7 Z" fill="#181310"/><path d="M-38.4 144.3 Q-34.2 139.5 -27.0 135.1 Q-19.9 130.6 -15.8 137.1 Q-11.8 143.6 -7.8 150.2 Q-3.7 156.9 -11.7 161.8 Q-19.7 166.6 -29.6 165.4 Q-39.6 164.2 -41.2 156.6 Q-42.7 149.0 -38.4 144.3 Z" fill="#b8874a"/><path d="M398.5 159.7 Q393.7 162.2 387.3 159.8 Q380.9 157.4 380.0 150.0 Q379.0 142.7 384.4 138.3 Q389.9 133.8 397.5 133.5 Q405.1 133.2 406.4 140.5 Q407.7 147.8 405.5 152.5 Q403.3 157.2 398.5 159.7 Z" fill="#b8874a"/><path d="M-8.4 143.8 Q-11.8 143.4 -15.1 140.7 Q-18.3 138.1 -19.4 134.7 Q-20.6 131.3 -17.2 130.3 Q-13.9 129.3 -9.2 133.4 Q-4.4 137.5 -4.7 140.8 Q-5.0 144.1 -8.4 143.8 Z" fill="#2b2117"/><path d="M410.7 143.1 Q407.8 143.2 405.4 140.8 Q402.9 138.3 402.3 135.8 Q401.7 133.2 404.3 132.7 Q406.9 132.3 409.5 134.8 Q412.0 137.3 412.8 140.1 Q413.6 142.9 410.7 143.1 Z" fill="#2b2117"/><path d="M-16.8 165.4 Q-19.2 160.8 -17.2 153.2 Q-15.2 145.5 -10.6 142.6 Q-6.1 139.6 -4.0 144.7 Q-1.9 149.7 -3.7 157.3 Q-5.6 164.8 -10.0 167.4 Q-14.4 169.9 -16.8 165.4 Z" fill="#2b2117"/><path d="M403.0 165.6 Q400.1 162.4 403.4 155.1 Q406.7 147.9 409.6 146.2 Q412.5 144.6 414.6 147.2 Q416.6 149.9 414.4 155.6 Q412.1 161.4 409.0 165.1 Q405.9 168.8 403.0 165.6 Z" fill="#2b2117"/><path d="M379.3 148.8 Q382.9 148.4 385.9 154.1 Q389.0 159.8 386.6 161.8 Q384.2 163.8 381.3 164.9 Q378.4 166.0 377.1 161.1 Q375.7 156.1 375.8 152.7 Q375.8 149.3 379.3 148.8 Z" fill="#2b2117"/><path d="M384.9 138.3 Q386.4 142.5 386.1 147.9 Q385.8 153.4 382.4 153.3 Q378.9 153.3 377.1 151.1 Q375.3 148.8 376.1 144.4 Q376.8 140.0 380.1 137.0 Q383.5 134.0 384.9 138.3 Z" fill="#2b2117"/><path d="M407.0 134.9 Q404.0 138.1 398.3 137.5 Q392.6 136.8 390.1 135.3 Q387.7 133.9 389.1 131.5 Q390.6 129.1 395.4 129.1 Q400.2 129.1 405.1 130.3 Q410.1 131.6 407.0 134.9 Z" fill="#2b2117"/><path d="M325.1 107.6 Q319.1 100.4 326.7 94.1 Q334.4 87.8 343.7 84.7 Q353.0 81.7 359.4 89.5 Q365.9 97.3 362.4 106.3 Q359.0 115.2 351.4 120.2 Q343.9 125.2 337.6 120.0 Q331.2 114.8 325.1 107.6 Z" fill="#b8874a"/><path d="M364.9 112.9 Q359.9 107.7 357.9 100.9 Q355.9 94.0 356.6 86.3 Q357.3 78.6 362.9 83.2 Q368.4 87.8 370.4 96.0 Q372.4 104.2 371.1 111.1 Q369.9 118.1 364.9 112.9 Z" fill="#181310"/><path d="M326.8 109.2 Q332.0 108.4 336.8 115.6 Q341.5 122.7 344.3 129.4 Q347.0 136.0 340.4 133.3 Q333.8 130.6 329.4 125.8 Q325.0 120.9 323.3 115.4 Q321.6 110.0 326.8 109.2 Z" fill="#181310"/><path d="M326.5 91.6 Q330.6 96.9 330.3 106.2 Q330.0 115.6 325.1 117.9 Q320.2 120.3 316.6 116.4 Q313.1 112.6 312.9 104.1 Q312.8 95.6 317.6 91.0 Q322.4 86.4 326.5 91.6 Z" fill="#181310"/><path d="M351.4 80.5 Q347.2 87.1 337.4 90.4 Q327.6 93.8 317.5 94.3 Q307.5 94.8 314.6 87.7 Q321.7 80.7 330.9 76.0 Q340.1 71.2 347.9 72.5 Q355.6 73.9 351.4 80.5 Z" fill="#181310"/><path d="M358.9 94.3 Q352.4 95.2 346.7 90.6 Q341.0 86.1 338.4 81.3 Q335.7 76.5 340.8 75.0 Q345.9 73.6 353.1 77.4 Q360.3 81.3 362.9 87.4 Q365.4 93.4 358.9 94.3 Z" fill="#181310"/><path d="M-3.6 73.2 Q0.5 70.8 4.1 72.0 Q7.7 73.2 11.5 76.5 Q15.3 79.8 12.7 85.3 Q10.1 90.9 5.1 89.9 Q0.2 89.0 -3.0 87.0 Q-6.1 85.0 -6.9 80.4 Q-7.7 75.7 -3.6 73.2 Z" fill="#d2a968"/><path d="M413.0 85.4 Q411.7 81.1 413.8 76.1 Q415.9 71.1 420.6 71.3 Q425.3 71.5 428.3 73.5 Q431.3 75.6 431.1 80.0 Q430.9 84.4 427.0 86.8 Q423.1 89.2 418.8 89.4 Q414.4 89.7 413.0 85.4 Z" fill="#d2a968"/><path d="M5.9 91.3 Q6.3 87.6 10.2 84.9 Q14.1 82.3 17.7 81.0 Q21.3 79.8 20.3 83.4 Q19.3 86.9 16.3 89.2 Q13.3 91.5 9.4 93.3 Q5.5 95.1 5.9 91.3 Z" fill="#2b2117"/><path d="M428.7 89.7 Q428.7 87.3 431.3 84.6 Q433.9 81.9 435.9 82.5 Q437.9 83.1 438.3 85.1 Q438.8 87.1 436.1 89.1 Q433.4 91.1 431.1 91.6 Q428.7 92.0 428.7 89.7 Z" fill="#2b2117"/><path d="M-6.3 87.5 Q-3.1 84.9 4.6 85.6 Q12.2 86.3 15.4 89.6 Q18.7 93.0 13.8 94.6 Q8.9 96.2 2.0 96.6 Q-4.9 96.9 -7.2 93.5 Q-9.6 90.1 -6.3 87.5 Z" fill="#2b2117"/><path d="M416.1 87.8 Q418.0 85.0 423.5 86.4 Q429.1 87.7 431.3 90.1 Q433.6 92.5 432.1 95.7 Q430.7 98.9 423.1 98.2 Q415.6 97.5 414.9 94.0 Q414.3 90.5 416.1 87.8 Z" fill="#2b2117"/><path d="M13.6 75.0 Q11.1 76.8 6.8 74.2 Q2.4 71.6 -0.4 68.8 Q-3.3 66.1 0.5 65.3 Q4.2 64.6 9.7 65.9 Q15.1 67.1 15.6 70.2 Q16.1 73.2 13.6 75.0 Z" fill="#2b2117"/><path d="M436.8 76.4 Q432.1 77.6 425.7 74.9 Q419.4 72.3 416.3 68.5 Q413.2 64.7 418.2 64.3 Q423.3 63.8 428.0 66.0 Q432.8 68.3 437.1 71.7 Q441.5 75.2 436.8 76.4 Z" fill="#2b2117"/><path d="M266.9 199.6 Q274.3 193.0 282.1 189.8 Q289.8 186.7 298.0 191.8 Q306.2 196.8 302.7 205.2 Q299.1 213.5 294.0 218.9 Q288.8 224.2 279.5 224.3 Q270.1 224.3 264.9 215.3 Q259.6 206.2 266.9 199.6 Z" fill="#b8874a"/><path d="M271.4 189.2 Q275.8 191.6 272.5 198.7 Q269.2 205.8 265.7 207.6 Q262.2 209.5 259.8 206.4 Q257.3 203.3 258.6 197.7 Q260.0 192.2 263.5 189.5 Q266.9 186.8 271.4 189.2 Z" fill="#241c15"/><path d="M286.9 185.3 Q285.7 190.9 279.3 193.5 Q272.9 196.1 265.8 196.6 Q258.7 197.1 261.3 190.7 Q264.0 184.4 270.4 181.6 Q276.7 178.9 282.5 179.3 Q288.2 179.8 286.9 185.3 Z" fill="#241c15"/><path d="M295.7 222.8 Q292.1 218.3 294.2 210.1 Q296.3 201.9 301.2 202.2 Q306.1 202.5 308.4 205.8 Q310.7 209.1 310.3 216.0 Q309.9 222.9 304.6 225.1 Q299.3 227.3 295.7 222.8 Z" fill="#241c15"/><path d="M280.3 230.2 Q284.0 225.0 291.5 222.1 Q298.9 219.2 307.9 218.8 Q316.8 218.3 312.6 225.1 Q308.4 231.8 297.7 236.7 Q287.0 241.6 281.8 238.5 Q276.6 235.4 280.3 230.2 Z" fill="#241c15"/><path d="M266.8 215.5 Q271.1 214.9 277.7 219.5 Q284.3 224.1 283.6 228.3 Q282.9 232.5 278.9 234.1 Q274.9 235.6 269.3 230.3 Q263.8 225.0 263.1 220.6 Q262.4 216.2 266.8 215.5 Z" fill="#241c15"/><path d="M269.8 352.7 Q276.3 345.8 285.4 348.4 Q294.4 351.1 296.3 359.0 Q298.3 367.0 297.9 375.9 Q297.5 384.9 288.7 383.3 Q279.9 381.7 273.5 378.8 Q267.1 376.0 265.2 367.8 Q263.3 359.6 269.8 352.7 Z" fill="#b8874a"/><path d="M291.7 343.9 Q290.3 349.5 281.5 353.1 Q272.8 356.6 263.1 358.4 Q253.3 360.1 259.8 352.8 Q266.2 345.5 273.3 342.3 Q280.3 339.1 286.7 338.7 Q293.2 338.3 291.7 343.9 Z" fill="#2b2117"/><path d="M296.1 379.4 Q292.0 374.1 293.1 365.5 Q294.2 356.9 297.5 354.1 Q300.7 351.3 304.6 353.3 Q308.5 355.4 308.0 364.1 Q307.4 372.7 303.8 378.8 Q300.2 384.8 296.1 379.4 Z" fill="#2b2117"/><path d="M219.4 205.8 Q214.9 211.5 209.6 213.5 Q204.2 215.5 199.8 212.2 Q195.4 208.9 193.1 203.0 Q190.7 197.2 195.7 192.9 Q200.6 188.6 206.4 189.9 Q212.3 191.2 218.0 195.6 Q223.8 200.0 219.4 205.8 Z" fill="#b8874a"/><path d="M210.6 186.6 Q209.5 189.8 204.4 191.4 Q199.3 193.0 193.9 191.5 Q188.6 190.1 190.5 184.9 Q192.4 179.8 200.5 177.3 Q208.6 174.9 210.1 179.2 Q211.7 183.4 210.6 186.6 Z" fill="#241c15"/><path d="M219.4 218.0 Q215.2 211.1 213.4 201.7 Q211.6 192.4 215.2 187.2 Q218.8 182.0 223.7 185.8 Q228.6 189.7 228.2 199.2 Q227.9 208.8 225.7 216.8 Q223.6 224.9 219.4 218.0 Z" fill="#241c15"/><path d="M273.3 68.2 Q266.7 73.9 258.6 69.0 Q250.6 64.2 246.7 58.4 Q242.8 52.7 243.7 45.2 Q244.5 37.7 253.5 36.2 Q262.4 34.8 269.2 40.6 Q276.0 46.5 278.0 54.5 Q279.9 62.5 273.3 68.2 Z" fill="#c79a5a"/><path d="M242.8 49.0 Q246.8 50.9 249.1 57.1 Q251.3 63.3 249.7 65.5 Q248.1 67.7 245.2 68.5 Q242.2 69.3 239.8 62.7 Q237.5 56.1 238.1 51.6 Q238.8 47.0 242.8 49.0 Z" fill="#181310"/><path d="M254.2 33.3 Q256.6 39.3 252.6 46.1 Q248.5 53.0 244.1 53.8 Q239.6 54.6 235.6 51.2 Q231.6 47.9 236.4 41.5 Q241.2 35.2 246.5 31.2 Q251.8 27.3 254.2 33.3 Z" fill="#181310"/><path d="M276.3 57.7 Q271.9 58.5 268.2 49.8 Q264.5 41.1 265.0 34.5 Q265.5 27.9 271.5 29.7 Q277.6 31.6 280.7 40.4 Q283.9 49.2 282.3 53.0 Q280.7 56.8 276.3 57.7 Z" fill="#181310"/><path d="M263.6 66.5 Q263.9 61.3 268.8 57.3 Q273.8 53.4 279.1 53.2 Q284.4 52.9 281.9 58.0 Q279.3 63.1 276.5 67.5 Q273.6 71.9 268.5 71.7 Q263.3 71.6 263.6 66.5 Z" fill="#181310"/><path d="M117.7 96.5 Q119.7 87.9 124.0 80.0 Q128.3 72.0 137.2 75.6 Q146.0 79.1 148.3 87.1 Q150.7 95.1 150.6 104.7 Q150.6 114.2 140.9 115.7 Q131.2 117.1 123.5 111.1 Q115.8 105.1 117.7 96.5 Z" fill="#c79a5a"/><path d="M150.0 112.8 Q144.7 104.9 145.4 93.0 Q146.1 81.2 150.2 74.5 Q154.3 67.7 159.5 73.2 Q164.7 78.7 162.9 89.0 Q161.1 99.2 158.3 110.0 Q155.4 120.8 150.0 112.8 Z" fill="#241c15"/><path d="M116.0 101.4 Q122.4 101.4 128.1 108.4 Q133.9 115.3 136.5 122.2 Q139.0 129.0 132.2 128.4 Q125.4 127.8 116.8 120.9 Q108.1 113.9 108.9 107.6 Q109.6 101.3 116.0 101.4 Z" fill="#241c15"/><path d="M126.1 73.7 Q126.1 77.9 123.5 81.6 Q120.9 85.4 116.1 88.6 Q111.3 91.9 110.5 86.6 Q109.8 81.3 113.9 75.5 Q117.9 69.7 122.0 69.6 Q126.2 69.5 126.1 73.7 Z" fill="#241c15"/><path d="M-27.9 274.9 Q-22.5 270.2 -15.9 268.0 Q-9.3 265.9 -1.8 269.2 Q5.8 272.6 3.8 279.3 Q1.8 286.0 -3.4 292.0 Q-8.6 297.9 -16.5 294.3 Q-24.4 290.8 -28.8 285.2 Q-33.2 279.5 -27.9 274.9 Z" fill="#d2a968"/><path d="M399.7 268.9 Q405.7 267.8 411.3 269.6 Q416.9 271.5 419.1 277.4 Q421.3 283.3 418.0 288.7 Q414.6 294.0 407.1 295.2 Q399.6 296.4 394.9 289.8 Q390.2 283.2 391.9 276.6 Q393.7 270.1 399.7 268.9 Z" fill="#d2a968"/><path d="M-8.4 298.3 Q-11.7 293.9 -7.9 285.8 Q-4.2 277.7 -0.2 277.4 Q3.8 277.2 6.7 280.0 Q9.5 282.8 7.2 290.7 Q4.9 298.6 -0.1 300.6 Q-5.1 302.7 -8.4 298.3 Z" fill="#2b2117"/><path d="M412.0 298.8 Q409.2 294.6 412.7 285.6 Q416.3 276.6 420.3 276.2 Q424.3 275.9 426.6 279.0 Q429.0 282.2 426.3 289.7 Q423.6 297.3 419.2 300.2 Q414.8 303.0 412.0 298.8 Z" fill="#2b2117"/><path d="M-32.6 276.0 Q-26.4 277.5 -19.5 283.8 Q-12.5 290.1 -12.9 295.9 Q-13.3 301.7 -19.1 301.4 Q-25.0 301.1 -30.9 294.0 Q-36.8 286.9 -37.7 280.8 Q-38.7 274.6 -32.6 276.0 Z" fill="#2b2117"/><path d="M388.3 276.4 Q393.0 275.7 399.2 282.9 Q405.3 290.2 404.9 294.7 Q404.4 299.3 399.7 298.0 Q395.0 296.7 389.8 291.7 Q384.5 286.8 384.1 281.9 Q383.6 277.0 388.3 276.4 Z" fill="#2b2117"/><path d="M210.7 -25.5 Q217.6 -22.4 218.2 -13.5 Q218.7 -4.6 212.4 0.1 Q206.1 4.8 200.0 2.9 Q193.9 1.0 191.3 -4.5 Q188.6 -10.1 190.6 -16.0 Q192.6 -22.0 198.2 -25.3 Q203.8 -28.6 210.7 -25.5 Z" fill="#b8874a"/><path d="M200.4 424.0 Q193.1 425.9 190.0 418.5 Q187.0 411.1 189.2 405.3 Q191.4 399.5 196.5 393.8 Q201.6 388.1 206.7 394.3 Q211.8 400.5 216.6 407.3 Q221.3 414.1 214.5 418.1 Q207.6 422.1 200.4 424.0 Z" fill="#b8874a"/><path d="M187.8 -4.0 Q190.8 -6.5 196.2 -2.2 Q201.7 2.2 203.9 7.7 Q206.2 13.2 200.1 12.1 Q194.0 11.0 188.5 8.5 Q183.1 5.9 183.9 2.2 Q184.8 -1.4 187.8 -4.0 Z" fill="#2b2117"/><path d="M186.1 416.7 Q190.6 417.0 195.4 420.1 Q200.1 423.3 201.6 427.2 Q203.0 431.0 198.9 431.1 Q194.8 431.2 187.7 428.1 Q180.6 425.1 181.1 420.8 Q181.7 416.5 186.1 416.7 Z" fill="#2b2117"/><path d="M190.4 -27.5 Q194.9 -25.8 193.4 -15.9 Q191.8 -5.9 187.2 -5.3 Q182.6 -4.7 177.9 -6.2 Q173.3 -7.7 175.3 -17.3 Q177.4 -26.9 181.7 -28.1 Q186.0 -29.2 190.4 -27.5 Z" fill="#2b2117"/><path d="M190.0 391.4 Q193.5 397.0 191.2 402.8 Q188.9 408.5 185.9 410.7 Q182.9 412.9 179.1 411.1 Q175.3 409.2 175.6 401.3 Q175.9 393.4 181.3 389.6 Q186.6 385.9 190.0 391.4 Z" fill="#2b2117"/><path d="M207.0 390.7 Q203.7 394.6 198.2 394.5 Q192.7 394.5 188.4 392.7 Q184.1 391.0 187.3 387.8 Q190.6 384.5 196.5 382.4 Q202.5 380.3 206.4 383.5 Q210.3 386.8 207.0 390.7 Z" fill="#2b2117"/><path d="M214.6 -5.1 Q211.9 -8.8 211.5 -15.2 Q211.0 -21.5 215.3 -25.8 Q219.6 -30.2 224.7 -26.4 Q229.8 -22.6 227.4 -14.5 Q225.1 -6.5 221.2 -3.9 Q217.3 -1.3 214.6 -5.1 Z" fill="#2b2117"/><path d="M214.1 419.1 Q211.4 413.0 210.0 403.1 Q208.6 393.2 214.0 392.2 Q219.5 391.2 223.6 394.1 Q227.8 397.0 227.7 407.9 Q227.6 418.7 222.2 421.9 Q216.8 425.2 214.1 419.1 Z" fill="#2b2117"/><path d="M12.9 330.1 Q17.1 325.5 21.9 330.0 Q26.8 334.5 28.6 339.8 Q30.5 345.0 26.1 347.6 Q21.7 350.1 16.5 352.3 Q11.4 354.5 9.6 349.0 Q7.7 343.6 8.2 339.2 Q8.8 334.7 12.9 330.1 Z" fill="#ad7c3f"/><path d="M428.3 349.8 Q424.1 345.9 425.0 339.7 Q425.9 333.5 431.3 330.0 Q436.7 326.5 441.0 330.5 Q445.3 334.4 449.1 339.2 Q452.9 344.1 448.3 348.6 Q443.6 353.1 438.1 353.4 Q432.6 353.7 428.3 349.8 Z" fill="#ad7c3f"/><path d="M13.9 357.0 Q16.1 352.1 21.0 349.6 Q25.9 347.0 31.6 346.2 Q37.4 345.4 36.2 350.6 Q35.1 355.9 28.5 359.8 Q22.0 363.6 16.8 362.8 Q11.7 361.9 13.9 357.0 Z" fill="#181310"/><path d="M18.6 328.8 Q17.3 332.3 14.1 333.8 Q10.8 335.4 7.0 336.1 Q3.2 336.8 4.9 333.4 Q6.5 330.0 9.6 326.6 Q12.8 323.1 16.3 324.2 Q19.8 325.3 18.6 328.8 Z" fill="#181310"/><path d="M440.7 327.2 Q438.1 331.4 433.9 334.0 Q429.6 336.7 425.6 337.3 Q421.5 338.0 423.6 334.4 Q425.7 330.8 429.5 328.4 Q433.2 325.9 438.2 324.4 Q443.3 322.9 440.7 327.2 Z" fill="#181310"/><path d="M84.7 218.6 Q80.3 212.3 81.0 202.2 Q81.7 192.1 90.4 189.3 Q99.1 186.5 108.0 187.1 Q116.9 187.7 118.8 198.7 Q120.7 209.7 114.2 221.2 Q107.8 232.6 98.4 228.8 Q89.1 224.9 84.7 218.6 Z" fill="#c79a5a"/><path d="M77.3 203.5 Q82.1 203.2 83.1 210.1 Q84.2 217.0 82.9 222.7 Q81.6 228.4 76.2 226.3 Q70.7 224.2 69.2 217.5 Q67.7 210.8 70.1 207.4 Q72.5 203.9 77.3 203.5 Z" fill="#241c15"/><path d="M118.6 193.8 Q115.0 199.2 107.3 194.2 Q99.6 189.2 96.3 184.1 Q93.0 179.0 97.7 174.5 Q102.3 170.0 110.6 173.8 Q118.9 177.6 120.6 183.0 Q122.2 188.4 118.6 193.8 Z" fill="#241c15"/><path d="M106.9 223.4 Q104.4 220.6 108.4 216.7 Q112.5 212.8 115.8 212.5 Q119.1 212.3 120.8 215.4 Q122.5 218.5 119.7 224.7 Q116.9 230.9 113.2 228.6 Q109.4 226.2 106.9 223.4 Z" fill="#241c15"/><path d="M11.1 20.7 Q8.7 15.1 11.6 10.8 Q14.4 6.5 19.9 1.9 Q25.4 -2.8 31.5 2.8 Q37.6 8.4 37.4 15.7 Q37.1 23.0 31.7 27.1 Q26.2 31.3 19.8 28.8 Q13.4 26.4 11.1 20.7 Z" fill="#ad7c3f"/><path d="M23.4 448.3 Q17.4 446.1 10.3 443.0 Q3.2 439.9 6.3 432.7 Q9.4 425.5 15.3 420.8 Q21.2 416.0 28.2 420.1 Q35.2 424.3 36.8 431.9 Q38.5 439.4 34.0 445.0 Q29.5 450.5 23.4 448.3 Z" fill="#ad7c3f"/><path d="M424.6 14.6 Q424.6 6.5 431.9 2.7 Q439.2 -1.0 446.1 1.3 Q452.9 3.7 457.4 10.0 Q462.0 16.3 455.9 21.4 Q449.9 26.5 444.1 26.8 Q438.4 27.0 431.5 24.9 Q424.6 22.7 424.6 14.6 Z" fill="#ad7c3f"/><path d="M461.3 428.6 Q462.8 437.4 455.4 442.8 Q448.0 448.2 441.8 447.9 Q435.7 447.6 431.9 444.0 Q428.1 440.4 427.5 433.0 Q426.9 425.6 434.9 421.4 Q442.9 417.2 451.4 418.6 Q459.9 419.9 461.3 428.6 Z" fill="#ad7c3f"/><path d="M31.9 3.0 Q27.9 4.4 23.1 4.0 Q18.4 3.6 16.4 1.1 Q14.5 -1.4 16.8 -3.5 Q19.1 -5.6 23.8 -4.4 Q28.5 -3.2 32.2 -0.8 Q35.9 1.5 31.9 3.0 Z" fill="#2b2117"/><path d="M30.8 424.0 Q28.6 427.0 24.6 424.9 Q20.6 422.8 17.6 420.7 Q14.7 418.6 17.8 416.9 Q20.8 415.2 24.1 416.0 Q27.4 416.9 30.2 419.0 Q33.0 421.1 30.8 424.0 Z" fill="#2b2117"/><path d="M218.3 358.6 Q219.1 356.0 220.9 353.8 Q222.6 351.5 224.9 353.3 Q227.1 355.1 227.3 357.7 Q227.4 360.3 225.2 361.7 Q223.0 363.2 220.2 362.2 Q217.5 361.2 218.3 358.6 Z" fill="#181310"/><path d="M265.3 -7.5 Q269.6 -9.5 275.8 -9.7 Q282.0 -9.8 284.5 -3.6 Q286.9 2.6 283.5 7.4 Q280.1 12.2 273.9 13.3 Q267.7 14.4 263.3 9.6 Q258.9 4.9 259.9 -0.3 Q261.0 -5.5 265.3 -7.5 Z" fill="#c79a5a"/><path d="M280.6 426.9 Q277.8 430.5 271.5 431.6 Q265.2 432.7 259.8 428.0 Q254.3 423.4 258.2 418.9 Q262.0 414.3 266.4 411.5 Q270.9 408.7 277.2 410.9 Q283.5 413.0 283.4 418.1 Q283.3 423.3 280.6 426.9 Z" fill="#c79a5a"/><path d="M281.4 5.3 Q279.8 3.2 280.2 -1.7 Q280.6 -6.6 283.4 -10.3 Q286.2 -14.0 287.7 -9.5 Q289.2 -5.0 288.6 0.1 Q288.0 5.2 285.5 6.3 Q283.1 7.4 281.4 5.3 Z" fill="#2b2117"/><path d="M281.1 424.8 Q278.9 423.3 280.0 419.2 Q281.2 415.0 283.5 412.3 Q285.7 409.5 288.5 411.8 Q291.3 414.0 289.9 419.6 Q288.5 425.1 285.9 425.6 Q283.3 426.2 281.1 424.8 Z" fill="#2b2117"/><path d="M255.6 2.1 Q261.9 2.5 269.7 6.5 Q277.4 10.6 279.3 16.0 Q281.1 21.4 274.7 20.3 Q268.4 19.1 262.9 15.9 Q257.5 12.6 253.4 7.2 Q249.3 1.8 255.6 2.1 Z" fill="#2b2117"/><path d="M258.1 424.6 Q263.2 425.0 269.8 427.6 Q276.4 430.3 277.7 435.2 Q279.1 440.1 273.3 438.9 Q267.5 437.6 262.9 435.2 Q258.4 432.8 255.7 428.4 Q253.0 424.1 258.1 424.6 Z" fill="#2b2117"/><path d="M258.9 -3.3 Q261.3 -2.1 261.4 1.3 Q261.4 4.7 260.2 6.5 Q258.9 8.3 257.3 6.8 Q255.6 5.4 254.7 2.8 Q253.9 0.2 255.2 -2.2 Q256.4 -4.5 258.9 -3.3 Z" fill="#2b2117"/><path d="M259.1 417.7 Q261.4 417.8 261.9 421.5 Q262.3 425.2 260.7 427.3 Q259.1 429.5 256.9 428.0 Q254.7 426.5 254.7 423.5 Q254.6 420.6 255.7 419.1 Q256.9 417.6 259.1 417.7 Z" fill="#2b2117"/><path d="M273.3 -9.8 Q273.2 -6.0 266.0 -3.0 Q258.8 -0.0 255.9 -2.7 Q253.0 -5.5 254.3 -9.0 Q255.5 -12.6 261.0 -14.1 Q266.5 -15.7 269.9 -14.6 Q273.3 -13.5 273.3 -9.8 Z" fill="#2b2117"/><path d="M271.6 409.4 Q268.7 412.9 264.9 415.0 Q261.0 417.1 258.1 415.4 Q255.1 413.7 255.4 410.1 Q255.6 406.5 260.5 406.0 Q265.3 405.6 270.0 405.8 Q274.6 406.0 271.6 409.4 Z" fill="#2b2117"/><path d="M282.3 -6.6 Q280.2 -4.9 274.4 -7.8 Q268.7 -10.8 265.8 -15.2 Q262.8 -19.5 268.2 -19.5 Q273.5 -19.6 279.9 -16.9 Q286.3 -14.2 285.4 -11.3 Q284.4 -8.4 282.3 -6.6 Z" fill="#2b2117"/><path d="M282.3 413.0 Q278.3 413.5 274.1 411.8 Q269.9 410.2 270.0 407.2 Q270.1 404.2 272.5 402.3 Q274.8 400.5 278.8 402.9 Q282.8 405.4 284.6 409.0 Q286.3 412.6 282.3 413.0 Z" fill="#2b2117"/><path d="M166.8 25.3 Q171.2 22.8 176.3 26.2 Q181.3 29.6 181.8 35.2 Q182.2 40.8 178.2 43.3 Q174.2 45.8 170.0 44.7 Q165.8 43.7 162.7 40.2 Q159.6 36.6 161.0 32.3 Q162.3 27.9 166.8 25.3 Z" fill="#d2a968"/><path d="M159.1 39.3 Q161.1 38.7 164.5 41.9 Q168.0 45.1 167.4 47.5 Q166.8 50.0 164.3 50.0 Q161.8 50.0 159.6 47.0 Q157.4 44.1 157.2 42.0 Q157.1 39.9 159.1 39.3 Z" fill="#2b2117"/><path d="M164.7 23.1 Q165.3 27.0 163.6 32.1 Q161.9 37.3 157.8 41.3 Q153.7 45.4 153.1 39.8 Q152.6 34.2 155.1 28.8 Q157.6 23.4 160.8 21.3 Q164.1 19.2 164.7 23.1 Z" fill="#2b2117"/><path d="M177.4 25.2 Q174.8 27.7 168.5 28.2 Q162.2 28.8 158.1 26.3 Q154.0 23.8 157.2 20.4 Q160.4 17.1 168.3 16.9 Q176.2 16.7 178.1 19.7 Q180.0 22.7 177.4 25.2 Z" fill="#2b2117"/><path d="M177.1 44.2 Q178.0 41.1 179.4 39.0 Q180.7 36.8 183.4 36.0 Q186.1 35.3 186.8 38.0 Q187.4 40.8 184.7 43.8 Q182.1 46.8 179.1 47.0 Q176.1 47.2 177.1 44.2 Z" fill="#2b2117"/><path d="M278.0 160.1 Q271.6 161.8 266.1 158.6 Q260.6 155.3 259.7 148.2 Q258.9 141.2 265.1 136.9 Q271.3 132.7 278.4 132.9 Q285.4 133.1 287.6 139.5 Q289.8 145.8 287.2 152.1 Q284.5 158.3 278.0 160.1 Z" fill="#c79a5a"/><path d="M274.3 128.1 Q275.5 131.1 270.2 133.7 Q264.9 136.4 261.7 136.5 Q258.6 136.7 259.6 133.7 Q260.6 130.7 264.1 126.7 Q267.5 122.7 270.3 123.9 Q273.1 125.1 274.3 128.1 Z" fill="#241c15"/><path d="M289.3 158.3 Q286.2 156.5 288.1 149.6 Q290.0 142.8 292.9 136.9 Q295.8 131.1 298.8 136.0 Q301.7 140.8 299.5 147.8 Q297.3 154.9 294.8 157.5 Q292.4 160.1 289.3 158.3 Z" fill="#241c15"/><path d="M346.4 219.5 Q346.4 227.9 344.8 234.8 Q343.3 241.6 335.9 243.6 Q328.5 245.6 324.6 239.9 Q320.7 234.1 321.0 228.5 Q321.3 222.8 325.0 216.0 Q328.7 209.3 337.5 210.2 Q346.3 211.1 346.4 219.5 Z" fill="#b8874a"/><path d="M349.6 223.1 Q347.0 222.4 345.2 219.6 Q343.4 216.7 343.8 213.5 Q344.3 210.4 347.6 210.3 Q351.0 210.2 353.5 214.6 Q356.0 219.0 354.1 221.4 Q352.2 223.7 349.6 223.1 Z" fill="#2b2117"/><path d="M328.5 247.9 Q329.1 241.7 338.0 235.5 Q346.9 229.3 354.5 228.7 Q362.1 228.1 357.5 235.2 Q352.8 242.3 347.0 247.1 Q341.1 251.8 334.5 252.9 Q327.8 254.1 328.5 247.9 Z" fill="#2b2117"/><path d="M312.5 224.5 Q317.6 225.9 322.8 233.7 Q328.0 241.5 325.4 245.8 Q322.8 250.1 317.7 250.5 Q312.5 251.0 307.4 241.7 Q302.2 232.4 304.8 227.7 Q307.5 223.1 312.5 224.5 Z" fill="#2b2117"/><path d="M334.0 209.3 Q335.1 213.1 328.4 217.6 Q321.7 222.1 316.4 222.9 Q311.2 223.8 313.5 218.8 Q315.8 213.7 320.4 209.2 Q325.1 204.7 329.0 205.0 Q332.9 205.4 334.0 209.3 Z" fill="#2b2117"/><path d="M267.6 270.9 Q261.7 276.6 253.8 279.4 Q245.9 282.2 239.3 275.4 Q232.6 268.6 234.7 259.1 Q236.7 249.5 244.8 245.2 Q252.8 240.8 259.7 245.5 Q266.5 250.3 269.9 257.8 Q273.4 265.2 267.6 270.9 Z" fill="#d2a968"/><path d="M239.5 250.4 Q243.4 253.7 239.1 261.9 Q234.7 270.1 230.0 269.8 Q225.3 269.5 222.2 266.1 Q219.0 262.7 223.0 255.9 Q226.9 249.2 231.3 248.2 Q235.6 247.1 239.5 250.4 Z" fill="#181310"/><path d="M270.2 253.9 Q265.0 255.9 256.8 248.9 Q248.6 242.0 248.8 235.4 Q249.0 228.8 255.6 228.6 Q262.2 228.4 269.6 234.8 Q277.0 241.3 276.1 246.6 Q275.3 252.0 270.2 253.9 Z" fill="#181310"/><path d="M253.7 283.4 Q253.5 280.0 258.3 276.6 Q263.2 273.2 267.8 274.5 Q272.3 275.8 271.0 280.3 Q269.7 284.9 264.6 288.4 Q259.5 291.8 256.7 289.4 Q253.9 286.9 253.7 283.4 Z" fill="#181310"/><path d="M146.6 234.5 Q145.0 232.9 146.5 229.5 Q148.1 226.1 150.8 224.7 Q153.5 223.2 154.8 226.0 Q156.2 228.8 154.1 231.7 Q152.0 234.6 150.2 235.3 Q148.3 236.0 146.6 234.5 Z" fill="#2b2117"/><path d="M389.7 326.3 Q395.2 330.8 393.2 337.7 Q391.2 344.6 385.5 350.3 Q379.7 356.1 373.4 350.8 Q367.2 345.6 364.8 339.2 Q362.4 332.8 366.8 327.6 Q371.3 322.4 377.8 322.1 Q384.3 321.8 389.7 326.3 Z" fill="#c79a5a"/><path d="M386.1 315.4 Q382.1 321.5 372.2 326.7 Q362.4 331.9 356.7 329.2 Q351.1 326.4 355.0 321.0 Q358.9 315.5 367.7 310.4 Q376.5 305.3 383.2 307.3 Q390.0 309.3 386.1 315.4 Z" fill="#241c15"/><path d="M397.9 331.1 Q393.7 330.3 388.8 326.3 Q383.9 322.3 386.0 319.8 Q388.0 317.2 390.7 316.8 Q393.4 316.4 396.9 319.9 Q400.3 323.4 401.2 327.7 Q402.1 332.0 397.9 331.1 Z" fill="#241c15"/><path d="M-31.9 354.8 Q-33.4 350.3 -30.4 341.1 Q-27.5 331.8 -21.0 329.5 Q-14.6 327.3 -14.7 334.7 Q-14.9 342.2 -18.2 349.0 Q-21.5 355.8 -26.0 357.6 Q-30.4 359.4 -31.9 354.8 Z" fill="#241c15"/><path d="M388.4 352.7 Q385.9 348.8 388.9 342.7 Q392.0 336.5 397.3 334.8 Q402.5 333.1 403.7 338.5 Q404.8 343.9 402.0 348.8 Q399.3 353.8 395.1 355.2 Q390.9 356.6 388.4 352.7 Z" fill="#241c15"/><path d="M365.3 346.6 Q369.6 344.3 376.1 347.5 Q382.6 350.7 383.8 354.2 Q385.0 357.6 382.6 360.8 Q380.2 364.0 372.2 361.0 Q364.2 357.9 362.7 353.4 Q361.1 348.8 365.3 346.6 Z" fill="#241c15"/><path d="M361.8 328.9 Q366.1 333.6 368.7 341.6 Q371.2 349.6 368.7 356.4 Q366.3 363.2 360.6 359.2 Q354.9 355.3 352.8 344.8 Q350.8 334.4 354.1 329.3 Q357.4 324.2 361.8 328.9 Z" fill="#241c15"/><path d="M377.6 -7.0 Q380.2 -5.4 381.2 -1.9 Q382.2 1.6 380.1 4.2 Q378.0 6.9 374.8 5.4 Q371.6 4.0 370.2 -0.5 Q368.7 -4.9 371.8 -6.7 Q375.0 -8.5 377.6 -7.0 Z" fill="#ad7c3f" opacity="0.85"/><path d="M382.9 415.0 Q385.9 417.4 382.9 422.4 Q379.9 427.3 375.8 427.1 Q371.8 426.8 371.3 423.2 Q370.8 419.6 372.1 415.5 Q373.4 411.5 376.6 412.1 Q379.8 412.7 382.9 415.0 Z" fill="#ad7c3f" opacity="0.85"/><path d="M374.7 6.0 Q375.4 3.6 378.5 1.0 Q381.5 -1.6 383.7 -0.1 Q385.9 1.4 385.4 3.9 Q385.0 6.4 381.8 8.1 Q378.6 9.9 376.3 9.1 Q373.9 8.3 374.7 6.0 Z" fill="#181310"/><path d="M373.6 426.3 Q373.9 423.9 377.9 421.7 Q381.9 419.5 384.8 420.0 Q387.6 420.5 386.3 423.1 Q385.0 425.8 381.6 427.5 Q378.3 429.3 375.8 429.0 Q373.3 428.7 373.6 426.3 Z" fill="#181310"/><path d="M100.9 28.6 Q102.5 35.9 102.5 43.4 Q102.4 50.8 95.1 51.7 Q87.8 52.6 80.5 51.1 Q73.1 49.7 72.3 41.3 Q71.5 32.9 77.1 26.3 Q82.7 19.7 91.0 20.5 Q99.2 21.3 100.9 28.6 Z" fill="#c79a5a"/><path d="M81.7 53.7 Q84.4 49.9 90.6 47.3 Q96.9 44.7 101.3 48.0 Q105.7 51.2 103.5 56.3 Q101.4 61.4 93.6 62.7 Q85.9 64.0 82.5 60.7 Q79.0 57.4 81.7 53.7 Z" fill="#181310"/><path d="M81.2 22.9 Q82.3 28.3 80.5 34.5 Q78.6 40.8 73.7 46.3 Q68.8 51.7 65.7 45.8 Q62.6 39.9 66.8 31.5 Q70.9 23.0 75.5 20.2 Q80.0 17.4 81.2 22.9 Z" fill="#181310"/><path d="M108.0 40.1 Q100.8 37.9 95.7 32.2 Q90.5 26.5 90.3 22.3 Q90.1 18.0 94.4 18.3 Q98.7 18.7 106.3 23.6 Q114.0 28.5 114.5 35.4 Q115.1 42.3 108.0 40.1 Z" fill="#181310"/><path d="M326.1 357.2 Q329.5 355.3 333.2 357.3 Q336.8 359.4 337.9 363.5 Q339.1 367.6 335.1 370.2 Q331.2 372.8 327.1 369.9 Q323.1 367.1 322.9 363.1 Q322.7 359.1 326.1 357.2 Z" fill="#b8874a" opacity="0.85"/><path d="M338.0 362.0 Q335.8 361.0 334.2 359.4 Q332.6 357.8 331.9 355.3 Q331.3 352.9 333.6 353.7 Q336.0 354.5 337.4 356.4 Q338.8 358.2 339.5 360.6 Q340.2 362.9 338.0 362.0 Z" fill="#181310"/><path d="M99.7 273.7 Q99.7 277.9 95.6 281.1 Q91.5 284.3 87.6 281.4 Q83.7 278.5 82.4 274.8 Q81.0 271.1 82.8 266.5 Q84.5 261.9 90.1 261.2 Q95.7 260.6 97.7 265.0 Q99.7 269.5 99.7 273.7 Z" fill="#d2a968"/><path d="M91.3 283.8 Q91.7 281.9 94.7 280.6 Q97.7 279.4 99.6 280.5 Q101.6 281.7 101.3 284.0 Q101.1 286.4 97.6 287.1 Q94.0 287.8 92.4 286.7 Q90.9 285.6 91.3 283.8 Z" fill="#181310"/><path d="M85.5 258.9 Q85.4 265.0 83.5 270.7 Q81.6 276.4 77.6 280.0 Q73.6 283.7 72.9 278.3 Q72.3 273.0 74.2 265.2 Q76.1 257.4 80.8 255.1 Q85.6 252.7 85.5 258.9 Z" fill="#181310"/><path d="M168.1 196.5 Q162.8 202.7 152.5 200.8 Q142.2 198.9 137.9 190.1 Q133.5 181.3 138.1 174.5 Q142.6 167.8 151.0 165.7 Q159.3 163.6 169.2 168.3 Q179.0 173.0 176.3 181.7 Q173.5 190.3 168.1 196.5 Z" fill="#b8874a"/><path d="M137.3 178.4 Q141.4 179.9 140.9 185.5 Q140.4 191.1 138.8 195.0 Q137.2 198.9 133.8 196.5 Q130.4 194.1 129.6 188.9 Q128.7 183.7 131.0 180.3 Q133.3 176.9 137.3 178.4 Z" fill="#241c15"/><path d="M163.4 160.9 Q161.9 165.2 155.4 168.6 Q148.8 172.1 145.5 169.9 Q142.2 167.8 144.7 164.5 Q147.2 161.2 151.6 157.7 Q156.0 154.2 160.5 155.4 Q165.0 156.6 163.4 160.9 Z" fill="#241c15"/><path d="M171.6 192.2 Q166.5 190.4 169.2 183.2 Q171.9 175.9 175.1 171.3 Q178.2 166.7 181.4 171.1 Q184.7 175.4 184.6 182.2 Q184.5 188.9 180.5 191.5 Q176.6 194.0 171.6 192.2 Z" fill="#241c15"/><path d="M127.3 287.7 Q133.3 281.2 143.2 278.2 Q153.1 275.2 160.8 282.2 Q168.5 289.1 164.7 296.5 Q160.9 303.9 154.7 307.9 Q148.4 311.9 138.5 311.5 Q128.6 311.1 125.0 302.7 Q121.4 294.3 127.3 287.7 Z" fill="#d2a968"/><path d="M158.9 282.9 Q154.1 285.6 146.8 283.3 Q139.5 280.9 134.1 276.9 Q128.7 272.9 135.3 271.5 Q141.8 270.0 149.2 270.9 Q156.6 271.8 160.2 276.0 Q163.7 280.2 158.9 282.9 Z" fill="#241c15"/><path d="M78.9 141.3 Q80.0 139.0 82.3 138.5 Q84.7 138.0 87.2 138.5 Q89.8 139.0 88.5 141.3 Q87.2 143.6 84.7 145.2 Q82.2 146.8 80.0 145.2 Q77.8 143.6 78.9 141.3 Z" fill="#2b2117"/><path d="M193.3 75.6 Q194.2 68.4 196.5 62.9 Q198.7 57.4 205.0 55.2 Q211.2 53.0 216.2 56.8 Q221.1 60.7 219.1 67.4 Q217.1 74.0 212.0 79.5 Q206.8 85.0 199.6 83.8 Q192.3 82.7 193.3 75.6 Z" fill="#ad7c3f"/><path d="M204.4 52.9 Q203.3 55.9 199.2 58.1 Q195.2 60.3 190.6 60.4 Q186.0 60.5 187.5 56.4 Q189.0 52.4 194.5 49.2 Q200.1 46.1 202.8 48.0 Q205.5 49.9 204.4 52.9 Z" fill="#2b2117"/><path d="M213.9 80.8 Q214.2 75.4 216.8 69.7 Q219.5 64.0 224.4 60.7 Q229.2 57.5 230.3 62.8 Q231.3 68.2 226.9 74.7 Q222.5 81.1 218.1 83.6 Q213.7 86.1 213.9 80.8 Z" fill="#2b2117"/><path d="M191.2 72.1 Q195.1 73.0 199.2 76.7 Q203.2 80.5 202.5 84.7 Q201.8 88.9 197.7 87.5 Q193.6 86.0 190.5 82.6 Q187.5 79.3 187.4 75.3 Q187.3 71.3 191.2 72.1 Z" fill="#2b2117"/><path d="M-1.2 224.5 Q-4.2 218.9 -4.2 210.4 Q-4.2 201.9 3.5 199.7 Q11.2 197.6 18.3 199.0 Q25.4 200.4 23.5 208.6 Q21.7 216.9 18.9 225.2 Q16.1 233.6 8.9 231.8 Q1.8 230.1 -1.2 224.5 Z" fill="#ad7c3f"/><path d="M428.1 202.8 Q433.9 201.5 438.1 205.4 Q442.3 209.3 440.7 214.5 Q439.1 219.7 435.2 222.9 Q431.2 226.1 425.4 225.6 Q419.6 225.2 415.4 219.4 Q411.1 213.7 416.8 208.9 Q422.4 204.1 428.1 202.8 Z" fill="#ad7c3f"/><path d="M21.9 224.4 Q20.0 220.6 20.2 216.1 Q20.4 211.5 23.3 208.8 Q26.2 206.1 28.0 209.8 Q29.7 213.4 29.3 217.2 Q28.9 221.1 26.4 224.7 Q23.9 228.2 21.9 224.4 Z" fill="#241c15"/><path d="M12.6 232.0 Q13.6 228.5 16.4 225.7 Q19.2 222.8 21.9 223.3 Q24.6 223.8 24.5 226.5 Q24.4 229.2 21.5 233.7 Q18.5 238.2 15.1 236.9 Q11.6 235.5 12.6 232.0 Z" fill="#241c15"/><path d="M432.0 231.7 Q431.8 228.5 435.6 224.9 Q439.4 221.4 443.7 221.0 Q448.0 220.7 448.0 225.0 Q448.0 229.3 443.3 232.5 Q438.6 235.6 435.4 235.3 Q432.1 235.0 432.0 231.7 Z" fill="#241c15"/><path d="M-7.0 218.2 Q-1.7 218.2 4.6 221.5 Q11.0 224.8 9.6 228.6 Q8.2 232.5 4.8 233.4 Q1.4 234.4 -2.9 231.2 Q-7.2 227.9 -9.8 223.0 Q-12.4 218.2 -7.0 218.2 Z" fill="#241c15"/><path d="M414.4 220.0 Q419.1 220.5 423.6 222.7 Q428.2 224.8 428.1 228.6 Q428.0 232.3 424.5 233.5 Q421.0 234.7 416.8 231.5 Q412.7 228.3 411.2 223.9 Q409.6 219.5 414.4 220.0 Z" fill="#241c15"/><path d="M-0.5 202.6 Q1.5 204.6 0.0 210.6 Q-1.5 216.5 -4.2 217.4 Q-6.8 218.3 -9.0 216.4 Q-11.1 214.6 -9.7 208.0 Q-8.3 201.4 -5.4 201.0 Q-2.5 200.6 -0.5 202.6 Z" fill="#241c15"/><path d="M418.8 204.6 Q420.8 206.0 419.7 210.7 Q418.7 215.3 416.2 215.5 Q413.8 215.6 411.6 214.5 Q409.3 213.3 410.5 208.3 Q411.7 203.3 414.3 203.3 Q416.8 203.3 418.8 204.6 Z" fill="#241c15"/><path d="M12.2 200.5 Q10.2 204.2 4.9 204.8 Q-0.3 205.3 -1.9 202.8 Q-3.5 200.3 -3.8 196.8 Q-4.0 193.3 1.1 193.7 Q6.1 194.0 10.2 195.3 Q14.2 196.7 12.2 200.5 Z" fill="#241c15"/><path d="M432.2 200.6 Q431.6 204.1 424.9 205.2 Q418.2 206.3 413.6 204.0 Q409.0 201.8 412.6 198.1 Q416.2 194.4 421.6 194.0 Q427.1 193.5 429.9 195.3 Q432.8 197.0 432.2 200.6 Z" fill="#241c15"/><path d="M54.5 2.7 Q54.0 3.1 53.4 3.0 Q52.8 3.0 52.7 2.2 Q52.5 1.4 53.3 1.2 Q54.2 1.0 54.6 1.6 Q55.0 2.3 54.5 2.7 Z" fill="#181310" opacity="0.9"/><path d="M54.8 422.9 Q54.2 423.6 53.3 423.4 Q52.4 423.3 52.7 422.5 Q53.0 421.8 53.5 421.6 Q54.0 421.4 54.7 421.9 Q55.4 422.3 54.8 422.9 Z" fill="#181310" opacity="0.9"/><path d="M174.2 281.7 Q173.8 282.5 172.7 282.2 Q171.7 281.8 171.5 280.6 Q171.3 279.4 172.6 279.0 Q173.9 278.6 174.2 279.7 Q174.6 280.8 174.2 281.7 Z" fill="#241c15" opacity="0.9"/><path d="M371.2 362.6 Q370.6 363.4 369.7 363.0 Q368.9 362.5 368.4 361.3 Q367.9 360.2 369.2 360.1 Q370.5 360.1 371.2 360.9 Q371.9 361.7 371.2 362.6 Z" fill="#181310" opacity="0.9"/><path d="M362.2 370.7 Q361.5 372.0 360.4 371.3 Q359.2 370.6 359.3 369.5 Q359.3 368.5 360.3 368.0 Q361.4 367.5 362.1 368.5 Q362.9 369.5 362.2 370.7 Z" fill="#181310" opacity="0.9"/><path d="M407.9 148.6 Q407.5 149.4 406.5 149.1 Q405.5 148.8 405.7 147.9 Q405.9 147.0 406.7 146.5 Q407.5 146.0 407.9 146.8 Q408.3 147.7 407.9 148.6 Z" fill="#241c15" opacity="0.9"/><path d="M13.6 335.5 Q12.9 336.3 12.1 335.9 Q11.2 335.5 11.3 334.7 Q11.5 334.0 12.2 333.4 Q13.0 332.8 13.6 333.7 Q14.2 334.6 13.6 335.5 Z" fill="#2b2117" opacity="0.9"/><path d="M366.3 346.2 Q366.0 347.5 364.8 346.8 Q363.5 346.1 363.2 344.7 Q362.9 343.2 364.4 342.9 Q365.9 342.6 366.3 343.7 Q366.6 344.9 366.3 346.2 Z" fill="#241c15" opacity="0.9"/><path d="M368.9 408.7 Q367.7 409.8 366.3 409.5 Q364.8 409.1 365.1 407.8 Q365.4 406.4 366.4 406.2 Q367.5 406.0 368.8 406.8 Q370.0 407.6 368.9 408.7 Z" fill="#2b2117" opacity="0.9"/><path d="M303.8 307.3 Q303.1 308.2 302.2 307.8 Q301.4 307.3 301.1 306.3 Q300.8 305.2 302.0 304.9 Q303.2 304.5 303.9 305.5 Q304.6 306.5 303.8 307.3 Z" fill="#181310" opacity="0.9"/><path d="M173.4 384.1 Q173.0 384.5 172.5 384.4 Q171.9 384.3 171.7 383.6 Q171.6 382.8 172.3 382.9 Q173.0 382.9 173.4 383.3 Q173.7 383.7 173.4 384.1 Z" fill="#181310" opacity="0.9"/><path d="M258.7 184.2 Q258.3 185.0 257.2 184.8 Q256.2 184.7 256.1 183.5 Q256.0 182.2 257.1 182.3 Q258.2 182.4 258.7 182.9 Q259.1 183.5 258.7 184.2 Z" fill="#181310" opacity="0.9"/><path d="M357.2 200.0 Q356.7 200.5 356.1 200.3 Q355.5 200.1 355.6 199.6 Q355.6 199.0 356.1 198.8 Q356.6 198.6 357.2 199.1 Q357.7 199.5 357.2 200.0 Z" fill="#241c15" opacity="0.9"/><path d="M343.9 14.1 Q343.1 15.3 341.6 14.9 Q340.1 14.4 340.0 12.8 Q339.9 11.1 341.5 10.6 Q343.2 10.0 344.0 11.4 Q344.7 12.9 343.9 14.1 Z" fill="#241c15" opacity="0.9"/><path d="M386.0 355.8 Q385.5 356.8 384.3 356.4 Q383.1 356.1 382.9 354.7 Q382.7 353.3 384.1 353.2 Q385.4 353.1 386.0 354.0 Q386.6 354.8 386.0 355.8 Z" fill="#2b2117" opacity="0.9"/><path d="M297.8 189.5 Q297.1 190.2 296.3 189.9 Q295.5 189.5 295.4 188.6 Q295.2 187.7 296.1 187.5 Q297.1 187.2 297.8 188.0 Q298.6 188.7 297.8 189.5 Z" fill="#2b2117" opacity="0.9"/><path d="M319.7 126.0 Q319.2 127.4 317.5 126.9 Q315.8 126.4 316.3 124.9 Q316.8 123.5 318.0 122.8 Q319.1 122.1 319.6 123.3 Q320.1 124.6 319.7 126.0 Z" fill="#181310" opacity="0.9"/><path d="M74.8 272.7 Q74.2 274.0 72.8 273.5 Q71.4 272.9 71.4 271.4 Q71.3 269.9 72.6 269.8 Q74.0 269.7 74.6 270.6 Q75.3 271.5 74.8 272.7 Z" fill="#241c15" opacity="0.9"/><path d="M360.1 353.5 Q359.8 354.4 358.7 354.0 Q357.7 353.6 357.4 352.4 Q357.1 351.1 358.5 350.7 Q359.9 350.3 360.1 351.4 Q360.4 352.5 360.1 353.5 Z" fill="#181310" opacity="0.9"/><path d="M173.8 350.4 Q173.3 351.0 172.5 350.8 Q171.7 350.6 171.4 349.5 Q171.1 348.4 172.3 348.1 Q173.5 347.8 173.9 348.8 Q174.2 349.7 173.8 350.4 Z" fill="#241c15" opacity="0.9"/><path d="M157.6 241.7 Q156.5 243.0 155.2 242.3 Q154.0 241.5 153.8 240.2 Q153.6 238.9 154.8 238.8 Q156.1 238.7 157.4 239.5 Q158.7 240.3 157.6 241.7 Z" fill="#2b2117" opacity="0.9"/><path d="M57.5 273.0 Q57.0 273.7 56.1 273.5 Q55.1 273.3 55.3 272.4 Q55.4 271.4 56.2 271.3 Q57.0 271.1 57.5 271.7 Q58.0 272.3 57.5 273.0 Z" fill="#241c15" opacity="0.9"/><path d="M196.0 270.4 Q195.3 271.1 194.4 270.9 Q193.4 270.7 193.3 269.6 Q193.1 268.5 194.2 268.3 Q195.3 268.2 196.0 269.0 Q196.7 269.7 196.0 270.4 Z" fill="#2b2117" opacity="0.9"/></svg>