<svg xmlns="http://www.w3.org/2000/svg" width="440" height="440" viewBox="0 0 440 440"><rect width="440" height="440" fill="#e9ede4"/><path d="M309.2 384.0L309.2 384.0" fill="none" stroke="#77896c" stroke-width="1.7" stroke-linejoin="round" stroke-linecap="round"/><path d="M315.5 372.0L315.5 372.0" fill="none" stroke="#a9b8a0" stroke-width="1" stroke-linejoin="round" stroke-linecap="round"/><path d="M311.3 172.0L311.3 172.0M305.0 368.0L305.0 368.0" fill="none" stroke="#a9b8a0" stroke-width="1" stroke-linejoin="round" stroke-linecap="round"/><path d="M217.8 0.0L223.5 12.0L228.0 17.6L232.0 20.8L240.0 23.6L244.0 23.4L248.0 21.8L250.1 20.0L252.0 16.9L253.0 12.0L252.7 8.0L250.4 0.0M0.0 150.0L8.0 150.5L12.0 151.8L14.6 156.0L12.3 160.0L8.0 162.3L4.0 163.5L0.0 163.5M440.0 163.5L436.0 162.4L432.0 160.3L429.8 156.0L432.0 152.0L440.0 150.0M303.5 164.0L303.5 164.0M238.4 256.0L238.4 256.0M308.1 360.0L308.1 360.0M217.8 440.0L212.3 428.0L207.6 420.0L201.7 412.0L181.5 388.0L176.4 380.0L175.1 376.0L176.0 371.3L180.0 367.3L184.0 365.8L188.0 365.4L192.0 365.8L200.0 368.9L208.0 374.9L212.9 380.0L218.8 388.0L232.2 412.0L246.1 432.0L250.4 440.0" fill="none" stroke="#a9b8a0" stroke-width="1" stroke-linejoin="round" stroke-linecap="round"/><path d="M207.3 0.0L216.0 19.5L219.2 24.0L223.3 28.0L229.9 32.0L236.0 34.1L248.0 35.4L256.0 33.8L260.0 31.9L264.0 27.9L265.8 24.0L267.2 16.0L266.2 0.0M314.3 0.0L332.0 7.6L340.0 8.8L344.0 7.5L348.0 4.1L350.8 0.0M0.0 138.6L16.0 137.2L28.0 133.9L36.0 128.5L48.0 116.5L52.0 113.4L56.0 111.5L60.0 110.8L64.0 111.4L68.0 113.3L72.0 116.5L75.1 120.0L79.7 128.0L81.1 136.0L80.3 140.0L77.6 144.0L72.0 148.1L44.0 157.7L27.3 168.0L19.4 172.0L8.0 174.9L0.0 175.0M183.8 132.0L183.8 132.0M440.0 175.0L428.0 172.2L420.0 167.9L415.6 164.0L412.6 160.0L411.0 156.0L410.6 152.0L412.0 147.5L415.2 144.0L420.0 141.7L428.0 139.7L440.0 138.6M299.9 156.0L299.9 156.0M224.4 248.0L224.4 248.0M207.3 440.0L201.8 428.0L194.2 416.0L180.0 398.8L161.4 380.0L158.2 376.0L156.6 372.0L157.3 368.0L160.3 364.0L165.3 360.0L176.0 354.2L184.0 351.9L188.0 351.7L196.0 353.4L204.0 357.7L212.0 364.1L220.0 372.1L244.0 403.2L259.8 420.0L262.4 424.0L263.8 428.0L266.2 440.0M314.3 440.0L287.0 428.0L279.5 424.0L273.8 420.0L270.6 416.0L269.1 412.0L268.5 400.0L269.7 392.0L274.1 380.0L278.9 372.0L286.1 364.0L296.0 357.2L304.0 354.0L312.0 352.4L324.0 351.8L340.0 353.3L352.0 356.5L356.0 358.5L360.0 361.7L361.8 364.0L363.6 368.0L364.5 372.0L364.6 380.0L361.2 404.0L356.0 427.3L350.8 440.0" fill="none" stroke="#77896c" stroke-width="1.7" stroke-linejoin="round" stroke-linecap="round"/><path d="M199.6 0.0L208.0 23.4L212.0 29.9L216.0 34.0L220.0 36.7L228.0 40.2L236.0 42.3L248.0 43.9L256.0 44.0L264.0 43.2L273.7 40.0L278.2 36.0L280.0 32.0L281.9 16.0L284.1 8.0L288.0 4.7L292.0 3.9L296.0 4.3L304.0 6.9L312.9 12.0L317.2 16.0L320.0 20.0L321.6 24.0L322.3 28.0L320.1 44.0L320.9 48.0L324.3 52.0L328.0 53.5L332.0 54.1L336.0 53.6L340.0 52.2L344.0 49.2L348.0 44.6L350.7 40.0L356.0 27.2L359.7 12.0L361.6 0.0M0.0 131.4L12.0 129.7L24.0 125.1L32.0 119.2L48.0 103.2L53.9 100.0L60.0 98.9L64.0 99.4L68.0 100.9L72.9 104.0L80.0 110.8L87.1 120.0L91.9 128.0L95.1 136.0L95.7 140.0L95.2 144.0L92.0 149.7L88.0 153.4L80.0 157.8L52.0 167.0L32.0 176.3L22.4 180.0L12.0 182.2L0.0 182.3M176.6 108.0L176.6 108.0M440.0 182.3L432.0 181.1L424.0 178.8L416.0 175.4L408.0 170.2L401.6 164.0L398.9 160.0L397.1 156.0L396.3 148.0L397.3 144.0L399.7 140.0L404.0 136.6L408.0 134.9L420.0 132.7L440.0 131.4M302.0 148.0L302.0 148.0M199.6 440.0L194.2 428.0L189.4 420.0L180.3 408.0L172.0 399.2L160.0 389.2L148.0 381.6L132.0 373.9L125.3 372.0L124.7 368.0L132.0 366.4L144.0 361.2L184.0 339.0L188.0 337.8L192.0 337.5L196.0 338.4L204.0 343.4L216.0 354.4L240.0 378.2L248.0 383.6L252.0 384.6L256.0 383.8L260.0 381.0L274.6 364.0L284.0 355.2L292.0 349.9L300.0 346.5L308.0 344.8L316.0 344.2L352.0 345.2L368.0 347.4L376.0 351.1L380.3 356.0L381.3 360.0L380.8 364.0L372.8 384.0L369.2 396.0L365.9 412.0L361.6 440.0" fill="none" stroke="#a9b8a0" stroke-width="1" stroke-linejoin="round" stroke-linecap="round"/><path d="M192.9 0.0L196.1 12.0L200.1 32.0L201.7 36.0L204.0 39.2L208.0 42.2L216.0 45.4L228.0 48.1L280.0 54.9L288.0 57.3L312.4 68.0L324.0 70.5L332.0 70.9L340.0 69.9L348.0 66.4L354.6 60.0L359.5 52.0L364.0 40.9L367.5 28.0L369.2 16.0L370.0 0.0M192.9 440.0L187.7 428.0L180.1 416.0L169.5 404.0L160.0 396.2L148.0 389.3L136.0 385.3L124.0 383.4L100.0 381.0L92.0 379.1L83.6 376.0L76.6 372.0L71.3 368.0L63.7 360.0L59.4 352.0L58.9 348.0L60.0 344.8L64.0 342.8L68.0 342.9L100.0 353.0L108.0 354.8L120.0 356.2L128.0 356.1L136.0 355.0L144.0 352.6L152.0 349.1L160.5 344.0L170.5 336.0L177.0 328.0L178.9 324.0L179.7 320.0L179.3 312.0L176.7 304.0L158.8 268.0L157.9 264.0L158.2 260.0L160.8 256.0L168.0 252.4L184.0 247.6L192.0 244.2L199.0 240.0L212.0 230.5L220.0 226.4L224.0 225.4L232.0 225.4L240.0 226.9L276.0 238.6L288.0 240.4L292.0 240.0L296.0 238.3L298.5 236.0L300.4 232.0L300.7 228.0L298.8 220.0L292.6 208.0L272.0 176.7L264.0 166.1L260.0 162.3L256.0 161.8L252.0 164.0L244.0 170.1L224.0 188.4L216.0 193.2L212.0 194.2L204.0 193.4L196.0 189.8L192.0 187.2L180.0 177.1L167.5 164.0L157.5 152.0L153.2 144.0L152.3 140.0L152.8 132.0L157.9 112.0L158.6 100.0L155.7 88.0L147.4 68.0L146.5 60.0L148.0 55.6L152.0 51.4L156.0 49.5L164.0 47.8L176.0 48.8L180.0 50.1L184.0 52.4L186.8 56.0L188.3 60.0L190.7 84.0L192.4 92.0L193.8 96.0L198.2 104.0L204.8 112.0L213.6 120.0L240.6 140.0L256.0 153.0L260.0 154.4L274.8 148.0L286.7 144.0L300.0 141.6L312.0 141.2L324.0 142.2L340.0 145.2L368.0 154.6L372.0 155.3L376.0 153.1L383.9 136.0L387.3 132.0L392.0 128.8L396.0 127.3L404.0 126.1L440.0 125.4M0.0 125.4L12.0 122.9L18.6 120.0L24.0 116.5L29.1 112.0L44.0 95.5L48.0 92.4L52.0 90.4L56.0 89.3L64.0 89.8L69.7 92.0L76.0 96.0L84.2 104.0L105.9 132.0L109.7 140.0L110.1 144.0L109.1 148.0L106.6 152.0L102.7 156.0L97.2 160.0L88.0 164.8L56.0 175.4L28.0 186.2L16.0 188.6L0.0 188.6M370.0 440.0L371.8 416.0L374.2 404.0L376.9 396.0L380.0 389.7L384.0 384.2L388.0 380.3L400.0 372.0L404.1 368.0L405.7 364.0L405.5 360.0L404.0 356.0L398.1 348.0L393.7 344.0L388.0 339.9L380.0 335.9L372.0 333.6L364.0 332.7L336.0 333.6L319.3 332.0L309.7 328.0L309.7 324.0L312.8 320.0L332.0 302.0L340.0 293.1L360.0 265.2L369.8 248.0L374.3 236.0L377.0 224.0L378.3 212.0L379.5 180.0L380.1 176.0L382.6 172.0L384.0 171.1L388.0 171.7L407.0 180.0L418.1 184.0L428.0 186.6L440.0 188.6M226.8 316.0L226.8 316.0" fill="none" stroke="#a9b8a0" stroke-width="1" stroke-linejoin="round" stroke-linecap="round"/><path d="M186.5 0.0L188.6 12.0L188.5 20.0L186.0 28.0L184.0 30.8L180.0 33.7L176.0 35.3L156.0 39.2L148.0 41.8L143.6 44.0L140.0 46.8L136.0 52.0L134.7 56.0L135.0 64.0L146.3 92.0L147.9 104.0L146.7 112.0L144.0 119.1L140.0 125.5L136.0 129.5L132.0 131.6L128.0 131.9L124.0 130.9L116.0 126.4L104.0 115.9L88.0 97.3L80.0 89.4L72.0 83.9L64.0 80.7L60.0 80.0L52.0 80.5L44.9 84.0L40.0 88.4L27.7 104.0L20.0 111.6L12.0 116.4L0.0 119.7M377.7 0.0L377.7 12.0L376.8 24.0L372.0 44.5L368.0 56.2L362.8 68.0L360.0 72.6L357.0 76.0L352.0 79.4L348.0 80.9L340.0 82.0L332.0 81.8L320.0 80.5L304.0 76.6L276.0 64.4L261.4 60.0L236.0 56.1L224.0 55.5L216.0 56.1L212.0 57.1L207.2 60.0L204.0 64.1L201.4 72.0L200.8 80.0L201.5 88.0L205.8 100.0L211.4 108.0L215.1 112.0L228.0 122.2L248.0 133.5L256.0 136.4L264.0 137.8L272.0 137.7L292.0 135.4L304.0 134.8L352.0 137.7L359.6 136.0L364.0 133.3L376.0 120.8L380.0 118.4L384.0 117.2L396.0 117.0L424.0 120.2L440.0 119.7M0.0 194.5L12.0 195.2L20.0 194.9L36.0 191.7L88.0 173.7L101.0 168.0L128.0 152.9L132.0 152.0L136.0 152.2L140.0 153.2L148.0 157.7L160.0 167.2L193.1 200.0L200.1 208.0L202.2 212.0L202.5 216.0L201.4 220.0L195.8 228.0L191.3 232.0L184.8 236.0L180.0 238.0L152.0 245.0L146.8 248.0L143.9 252.0L143.3 256.0L144.0 260.0L145.7 264.0L163.2 292.0L168.3 304.0L170.1 312.0L169.8 320.0L166.8 328.0L160.3 336.0L156.0 339.6L148.0 344.5L136.0 348.9L128.0 350.1L116.0 349.9L108.0 348.6L96.0 345.1L84.0 339.8L64.0 328.7L56.0 326.0L52.0 325.9L48.0 327.2L44.0 330.9L41.6 336.0L40.8 340.0L41.2 348.0L42.4 352.0L47.2 360.0L50.9 364.0L60.5 372.0L73.7 380.0L84.0 384.1L96.0 386.9L124.0 389.3L136.0 391.2L148.0 395.2L156.8 400.0L166.8 408.0L174.0 416.0L181.7 428.0L186.5 440.0M246.8 184.0L246.8 184.0M377.7 440.0L377.7 428.0L378.9 416.0L380.9 408.0L384.5 400.0L388.0 395.3L392.0 391.8L396.0 389.4L404.0 386.7L420.0 383.1L426.0 380.0L429.2 376.0L430.1 372.0L429.5 368.0L427.8 364.0L421.9 356.0L409.6 344.0L399.8 336.0L384.0 326.3L358.2 316.0L353.1 312.0L351.7 308.0L352.7 300.0L358.9 284.0L372.0 258.2L378.0 244.0L382.4 228.0L387.6 200.0L389.2 196.0L391.8 192.0L396.0 189.4L404.0 188.7L440.0 194.5" fill="none" stroke="#a9b8a0" stroke-width="1" stroke-linejoin="round" stroke-linecap="round"/><path d="M180.2 0.0L181.1 8.0L180.9 12.0L180.0 16.0L176.0 22.6L172.0 25.8L168.0 27.8L144.0 35.4L136.0 39.5L130.5 44.0L127.3 48.0L125.4 52.0L124.3 56.0L124.6 64.0L127.3 72.0L134.7 88.0L136.8 96.0L136.5 104.0L135.1 108.0L132.0 112.3L128.0 114.7L124.0 115.3L120.0 114.7L116.0 113.2L108.0 107.6L90.3 88.0L80.0 79.2L72.0 74.7L64.0 71.7L56.0 70.2L52.0 70.1L48.0 70.8L44.0 72.6L40.0 75.7L36.0 80.4L24.0 98.7L16.0 107.0L8.0 111.7L0.0 114.1M385.6 0.0L385.8 12.0L384.8 24.0L382.4 36.0L372.6 72.0L370.6 84.0L370.9 92.0L373.0 96.0L378.2 100.0L386.4 104.0L404.0 110.5L416.0 113.5L424.0 114.6L432.0 114.9L440.0 114.1M225.0 64.0L225.0 64.0M0.0 200.5L20.0 201.7L28.0 201.1L40.0 198.7L88.0 182.2L120.0 168.2L132.0 165.1L140.0 165.7L144.0 166.8L152.0 170.8L164.0 180.5L177.6 196.0L182.8 204.0L185.6 212.0L185.6 216.0L184.2 220.0L181.3 224.0L176.0 227.9L172.0 229.7L148.0 235.6L140.0 238.8L134.0 244.0L132.2 248.0L131.9 252.0L134.3 260.0L139.3 268.0L154.2 288.0L158.6 296.0L161.7 304.0L163.1 312.0L162.4 320.0L158.9 328.0L155.7 332.0L148.0 338.3L144.0 340.6L136.0 343.6L124.0 345.3L112.0 344.4L104.0 342.5L92.0 337.8L81.9 332.0L64.0 319.6L56.0 315.3L48.0 313.5L44.0 313.9L40.0 315.7L36.0 319.5L32.0 326.1L27.1 340.0L23.8 356.0L24.2 360.0L27.0 364.0L33.3 368.0L56.2 380.0L72.0 386.9L80.0 389.4L92.0 391.8L132.0 395.4L144.0 398.7L152.0 402.5L164.0 411.7L171.1 420.0L175.9 428.0L180.2 440.0M440.0 353.9L428.0 346.5L376.0 310.1L370.3 304.0L368.5 300.0L367.6 292.0L370.1 280.0L382.7 248.0L392.0 213.9L396.7 204.0L401.2 200.0L408.0 197.8L420.0 197.9L440.0 200.5M0.0 353.9L10.7 360.0L15.1 364.0L15.9 368.0L14.3 376.0L10.6 384.0L4.3 392.0L0.0 395.0M385.6 440.0L385.7 428.0L387.6 416.0L391.4 408.0L396.0 403.2L404.0 399.5L412.0 398.4L432.0 397.6L440.0 395.0" fill="none" stroke="#77896c" stroke-width="1.7" stroke-linejoin="round" stroke-linecap="round"/><path d="M173.8 0.0L173.6 8.0L172.4 12.0L168.0 18.0L160.0 22.9L140.0 30.2L132.0 34.1L123.8 40.0L117.1 48.0L113.6 56.0L112.5 64.0L113.4 72.0L119.0 88.0L118.6 92.0L116.0 93.8L112.0 92.5L98.6 80.0L93.4 76.0L84.0 70.5L72.0 65.2L60.0 60.8L52.0 58.5L44.0 57.4L40.0 58.1L36.0 60.9L32.0 67.4L23.1 88.0L16.0 98.5L8.0 105.0L0.0 108.1M394.9 0.0L394.7 12.0L393.3 24.0L384.7 56.0L382.5 68.0L382.3 76.0L384.0 84.0L388.0 90.9L393.0 96.0L398.7 100.0L406.4 104.0L416.0 107.3L424.0 108.9L432.0 109.2L440.0 108.1M230.9 72.0L230.9 72.0M0.0 206.8L24.0 209.1L40.0 207.3L56.0 202.7L80.0 194.3L120.0 177.2L128.0 175.1L136.0 174.6L143.2 176.0L148.0 178.0L156.8 184.0L160.9 188.0L167.1 196.0L171.0 204.0L171.8 208.0L171.5 212.0L169.8 216.0L165.7 220.0L156.9 224.0L140.0 228.6L132.0 231.8L126.4 236.0L123.6 240.0L122.3 244.0L122.6 252.0L126.0 260.0L131.6 268.0L148.0 288.0L152.7 296.0L155.8 304.0L157.1 312.0L155.9 320.0L152.0 327.5L147.8 332.0L140.0 336.9L128.0 340.4L120.0 340.7L108.0 338.9L96.0 334.5L88.0 330.1L64.0 311.4L56.0 306.1L48.0 302.8L44.0 302.1L40.0 302.3L36.0 303.6L30.6 308.0L27.5 312.0L16.2 332.0L12.0 336.5L8.0 338.6L4.0 339.4L0.0 339.2M440.0 339.2L432.0 337.1L424.0 333.2L412.0 325.7L392.9 312.0L384.2 304.0L381.2 300.0L379.3 296.0L377.8 288.0L378.5 280.0L380.6 272.0L389.0 248.0L396.2 224.0L399.6 216.0L402.3 212.0L408.0 207.3L416.0 205.2L424.0 205.1L440.0 206.8M0.0 415.0L8.0 413.9L12.0 411.7L16.0 408.0L25.6 396.0L29.7 392.0L36.0 388.5L40.0 387.8L48.0 388.2L72.0 394.0L84.0 396.1L128.0 399.3L136.0 401.0L144.0 403.6L152.0 407.9L157.5 412.0L164.0 418.7L167.8 424.0L171.8 432.0L173.8 440.0M394.9 440.0L395.4 432.0L397.0 424.0L400.0 418.2L404.0 414.7L408.0 412.9L416.0 412.0L440.0 415.0" fill="none" stroke="#a9b8a0" stroke-width="1" stroke-linejoin="round" stroke-linecap="round"/><path d="M34.2 0.0L37.6 16.0L41.2 28.0L45.1 36.0L48.1 40.0L56.0 47.0L64.7 52.0L76.0 56.4L88.0 58.9L92.0 58.6L96.0 57.4L100.0 54.6L113.3 40.0L123.6 32.0L132.0 27.5L152.0 19.2L160.0 14.5L162.7 12.0L165.4 8.0L166.7 4.0L167.0 0.0M411.2 0.0L405.8 20.0L392.9 56.0L391.1 68.0L392.0 76.7L394.8 84.0L397.5 88.0L404.0 94.1L412.0 98.9L420.0 101.8L428.0 103.0L436.0 102.5L440.0 101.4M428.7 0.0L432.0 5.2L440.0 24.7M0.0 24.7L16.9 52.0L19.5 60.0L20.2 68.0L18.3 80.0L15.0 88.0L8.9 96.0L4.0 99.6L0.0 101.4M235.5 84.0L235.5 84.0M0.0 214.0L24.0 217.9L32.0 217.9L44.0 216.0L88.0 202.1L117.7 188.0L124.0 185.8L132.0 184.3L140.0 185.2L148.0 189.0L151.6 192.0L154.8 196.0L156.8 200.0L157.5 204.0L156.9 208.0L154.0 212.0L152.0 213.4L147.2 216.0L128.0 222.1L120.0 226.4L114.9 232.0L113.1 236.0L112.3 240.0L113.0 248.0L114.2 252.0L118.3 260.0L124.4 268.0L142.0 288.0L149.0 300.0L151.1 308.0L150.9 316.0L148.0 323.3L144.0 328.2L136.0 333.3L125.8 336.0L116.0 336.0L104.0 333.2L96.0 329.6L87.3 324.0L64.0 303.4L52.0 294.5L44.0 290.9L36.0 289.7L32.0 290.6L29.4 292.0L24.7 296.0L9.8 320.0L4.0 324.8L0.0 326.2M440.0 326.2L432.0 325.9L424.0 323.2L416.0 318.9L404.0 310.6L396.4 304.0L390.2 296.0L388.0 290.8L386.9 284.0L388.2 272.0L391.7 260.0L400.9 232.0L404.0 224.8L407.2 220.0L412.0 215.7L420.0 213.0L428.0 212.6L440.0 214.0M34.2 440.0L33.3 432.0L33.4 424.0L35.3 416.0L37.0 412.0L39.6 408.0L44.1 404.0L52.0 401.0L60.0 400.4L120.0 402.9L132.0 404.6L140.0 407.0L149.8 412.0L158.7 420.0L164.0 428.0L166.6 436.0L167.0 440.0M411.2 440.0L412.0 438.4L416.0 435.1L420.0 434.7L424.0 435.9L428.7 440.0" fill="none" stroke="#a9b8a0" stroke-width="1" stroke-linejoin="round" stroke-linecap="round"/><path d="M47.5 0.0L49.1 12.0L51.3 20.0L54.6 28.0L57.1 32.0L60.3 36.0L68.0 42.1L76.0 45.5L84.0 46.7L92.0 45.2L96.0 43.2L118.5 28.0L151.4 12.0L156.0 8.0L158.5 4.0L159.6 0.0M440.0 92.7L436.0 94.5L428.0 95.7L420.0 94.0L415.3 92.0L409.6 88.0L404.0 81.2L401.7 76.0L400.5 68.0L401.5 60.0L404.4 52.0L408.0 45.9L412.0 41.3L416.0 38.5L420.0 37.5L424.0 38.0L428.0 39.8L432.0 42.5L440.0 50.2M0.0 50.2L6.7 60.0L8.4 64.0L10.0 72.0L9.1 80.0L7.7 84.0L4.0 89.4L0.0 92.7M0.0 223.0L20.0 229.3L28.0 230.7L32.0 230.6L40.0 229.2L64.0 221.5L76.0 218.9L88.0 218.3L94.5 220.0L97.8 224.0L101.1 240.0L105.5 252.0L113.4 264.0L132.0 283.3L139.0 292.0L143.4 300.0L144.8 304.0L145.6 312.0L144.0 318.4L140.4 324.0L136.0 327.5L132.0 329.6L128.0 330.8L120.0 331.8L108.0 329.9L100.0 326.7L89.6 320.0L80.7 312.0L60.0 290.7L48.0 280.8L40.0 275.7L32.0 273.0L28.0 273.1L24.0 274.6L20.0 277.8L15.5 284.0L5.5 304.0L0.0 310.4M440.0 310.4L436.0 312.5L432.0 313.2L428.0 312.9L420.0 310.2L412.0 305.4L405.5 300.0L400.0 293.1L397.6 288.0L396.1 280.0L396.7 272.0L400.0 258.5L406.3 240.0L412.0 229.2L418.2 224.0L424.0 222.0L432.0 221.7L440.0 223.0M47.5 440.0L47.5 432.0L49.0 424.0L50.6 420.0L53.5 416.0L58.7 412.0L64.0 409.9L75.2 408.0L108.0 406.9L120.0 407.4L132.0 409.3L140.0 412.1L146.8 416.0L152.0 420.5L157.3 428.0L159.7 436.0L159.6 440.0" fill="none" stroke="#a9b8a0" stroke-width="1" stroke-linejoin="round" stroke-linecap="round"/><path d="M58.2 0.0L59.5 12.0L62.4 20.0L64.6 24.0L68.0 28.4L72.5 32.0L80.0 35.1L84.0 35.5L88.0 35.2L96.0 32.7L138.3 12.0L144.8 8.0L148.0 5.0L151.1 0.0M418.6 60.0L418.6 60.0M63.3 236.0L63.3 236.0M440.0 276.8L436.0 286.9L432.5 292.0L428.0 294.8L424.0 295.2L420.0 294.1L416.4 292.0L412.4 288.0L410.1 284.0L408.1 276.0L408.7 268.0L412.0 255.0L416.0 245.6L420.0 240.0L424.0 237.0L428.0 235.7L433.0 236.0L440.0 239.2M0.0 239.2L4.4 244.0L6.0 248.0L6.5 252.0L5.3 260.0L0.0 276.8M58.2 440.0L59.2 432.0L60.5 428.0L62.9 424.0L68.0 419.2L74.7 416.0L84.0 413.8L96.0 412.3L108.0 411.7L120.0 412.2L128.0 413.5L136.0 416.1L142.7 420.0L147.0 424.0L149.8 428.0L151.4 432.0L151.9 436.0L151.1 440.0" fill="none" stroke="#77896c" stroke-width="1.7" stroke-linejoin="round" stroke-linecap="round"/><path d="M69.0 0.0L69.5 8.0L72.8 16.0L76.0 19.9L80.0 22.5L84.0 24.0L88.0 24.3L92.0 24.0L100.0 21.9L123.3 12.0L136.0 4.8L140.7 0.0M73.2 256.0L73.2 256.0M69.0 440.0L69.7 436.0L72.0 430.7L76.0 426.1L80.0 423.3L92.0 419.1L104.0 417.5L112.0 417.3L120.0 417.9L128.0 419.6L136.6 424.0L140.3 428.0L142.1 432.0L142.2 436.0L140.7 440.0" fill="none" stroke="#a9b8a0" stroke-width="1" stroke-linejoin="round" stroke-linecap="round"/><path d="M82.6 0.0L82.9 4.0L84.9 8.0L88.0 10.5L92.0 11.9L96.0 12.2L104.0 10.7L112.3 8.0L120.6 4.0L126.0 0.0M90.4 284.0L90.4 284.0M82.6 440.0L83.8 436.0L86.8 432.0L92.0 428.5L100.0 425.8L112.0 424.7L120.0 426.0L124.0 427.5L128.0 431.3L128.7 436.0L126.0 440.0" fill="none" stroke="#a9b8a0" stroke-width="1" stroke-linejoin="round" stroke-linecap="round"/></svg>